<?xml version="1.0" encoding="UTF-8"?>
<svg id="Layer_1" data-name="Layer 1" xmlns="http://www.w3.org/2000/svg" viewBox="0 0 187.34 75.61">
  <defs>
    <style>
      .cls-1 {
        fill: #fff;
        stroke-width: 0px;
      }
    </style>
  </defs>
  <path class="cls-1" d="M28.47,28.19h3.16l-4.05,14.24,4.25,1.46-.4,1.12h-14.55l.4-1.12,3.96-1.46L30.57,9.7h-.29c-.73,0-1.4.13-2.01.37-.61.25-1.22.72-1.82,1.42-.6.7-1.26,1.73-1.97,3.09l-1.29-.55c.8-2.3,1.71-4.1,2.71-5.4,1-1.3,2.08-2.22,3.23-2.76,1.15-.54,2.36-.8,3.65-.8.78,0,1.5.05,2.15.16.65.11,1.37.24,2.15.42l-2.87,10.53-.52-.4c1.24-2.51,2.49-4.54,3.73-6.11,1.24-1.57,2.49-2.73,3.75-3.47,1.25-.75,2.5-1.12,3.75-1.12,2.03,0,3.61.69,4.74,2.07,1.13,1.38,1.69,3.11,1.69,5.2,0,1.86-.25,3.69-.75,5.51-.5,1.82-1.2,3.53-2.11,5.12-.91,1.6-2,3.01-3.27,4.25-1.27,1.23-2.69,2.2-4.26,2.9-1.57.7-3.24,1.05-5.02,1.05-1.65,0-3.15-.24-4.51-.73-1.36-.49-2.34-1.24-2.96-2.25ZM32.98,21.93c-.21.84-.35,1.54-.43,2.1s-.11,1.01-.11,1.38c0,1.03.24,1.86.73,2.48.49.62,1.28.93,2.37.93.75,0,1.53-.28,2.35-.83.82-.55,1.62-1.32,2.38-2.31.76-.99,1.46-2.11,2.08-3.37.62-1.26,1.11-2.62,1.48-4.06.36-1.44.55-2.9.55-4.38,0-1.28-.21-2.24-.62-2.88-.41-.64-1.11-.96-2.08-.96-.61,0-1.25.2-1.92.59-.67.39-1.33.92-1.97,1.59-.64.67-1.25,1.44-1.84,2.32-.58.88-1.09,1.8-1.51,2.76-.42.96-.76,1.9-1,2.84l-.46,1.81Z"/>
  <path class="cls-1" d="M67.54,28.62l3.01-9.27h.78c-1.51,2.37-2.87,4.33-4.08,5.87s-2.31,2.74-3.32,3.6-1.95,1.46-2.84,1.81c-.89.34-1.76.52-2.63.52-1.11,0-2.09-.21-2.93-.63-.84-.42-1.5-1.07-1.98-1.94-.48-.87-.72-1.97-.72-3.29,0-1.55.29-3.22.86-5.02.57-1.8,1.37-3.57,2.38-5.32,1.01-1.75,2.21-3.34,3.59-4.78,1.38-1.44,2.87-2.58,4.48-3.44,1.61-.86,3.29-1.29,5.05-1.29,1.26,0,2.35.24,3.26.7s1.75,1.26,2.51,2.37l-1.35,1.84c-.17-.52-.52-.98-1.05-1.39s-1.23-.62-2.11-.62c-1.15,0-2.26.4-3.33,1.21s-2.07,1.85-3,3.13-1.74,2.66-2.44,4.13c-.7,1.47-1.24,2.89-1.64,4.25-.39,1.36-.59,2.5-.59,3.42,0,.75.17,1.28.5,1.61.33.33.82.49,1.45.49.59,0,1.3-.23,2.12-.69.82-.46,1.67-1.11,2.56-1.95.88-.84,1.71-1.85,2.5-3.01.78-1.17,1.44-2.45,1.95-3.85l3.65-9.9,3.21-1.35h3.44l-7.29,22.65-.92-1.72c.75.02,1.53-.12,2.35-.4.82-.29,1.68-.73,2.57-1.32s1.79-1.35,2.71-2.27l1.03,1.03c-2.09,2.62-4.02,4.51-5.8,5.67-1.78,1.16-3.48,1.74-5.11,1.74-1.24,0-2.11-.21-2.58-.63-.48-.42-.57-1.06-.29-1.92Z"/>
  <path class="cls-1" d="M84.82,8.44l.55-2.64h17.16l-.52,2.64h-17.19ZM92.14,21.79c-.23.71-.4,1.28-.52,1.71s-.19.78-.22,1.05-.04.5-.04.69c0,.35.07.59.2.75.13.15.33.23.57.23.36,0,.85-.2,1.46-.59.61-.39,1.3-.98,2.07-1.75.76-.77,1.6-1.74,2.5-2.88l1.32.95c-1,1.59-1.98,2.96-2.96,4.1s-1.93,2.11-2.87,2.87c-.94.77-1.85,1.33-2.73,1.69-.88.36-1.73.55-2.56.55-1.05,0-1.89-.29-2.53-.88-.63-.58-.95-1.64-.95-3.17,0-.61.09-1.38.26-2.31s.43-1.97.78-3.11L92.34,0h6.37l-6.57,21.79Z"/>
  <path class="cls-1" d="M104.08,8.44l.55-2.64h17.16l-.52,2.64h-17.19ZM111.4,21.79c-.23.71-.4,1.28-.52,1.71s-.19.78-.22,1.05-.04.5-.04.69c0,.35.07.59.2.75.13.15.33.23.57.23.36,0,.85-.2,1.46-.59.61-.39,1.3-.98,2.07-1.75.76-.77,1.6-1.74,2.5-2.88l1.32.95c-1,1.59-1.98,2.96-2.96,4.1s-1.93,2.11-2.87,2.87c-.94.77-1.85,1.33-2.73,1.69-.88.36-1.73.55-2.56.55-1.05,0-1.89-.29-2.53-.88-.63-.58-.95-1.64-.95-3.17,0-.61.09-1.38.26-2.31s.43-1.97.78-3.11L111.6,0h6.37l-6.57,21.79Z"/>
  <path class="cls-1" d="M133.7,32.06l1.03-.46c1.44-2.18,2.63-4.27,3.59-6.26.96-1.99,1.72-3.99,2.3-5.98.57-2,.98-4.11,1.22-6.33s.35-4.65.33-7.29c.61-.19,1.28-.33,1.99-.4s1.39-.12,2.02-.12c.52,0,.9.11,1.16.32s.39.55.39,1.03c0,.99-.12,2.11-.34,3.33-.23,1.22-.58,2.58-1.06,4.06s-1.1,3.09-1.87,4.82c-.76,1.73-1.68,3.58-2.74,5.55s-2.29,4.07-3.69,6.29c-2.31,3.71-4.45,6.67-6.41,8.87-1.96,2.2-3.81,3.78-5.55,4.75-1.74.97-3.47,1.45-5.2,1.45-1.63,0-2.8-.36-3.53-1.09-.73-.73-1.09-1.65-1.09-2.78,0-1,.3-1.8.9-2.4.6-.6,1.32-.9,2.14-.9.21,0,.44.09.7.29.26.19.65.58,1.16,1.18.52.59,1.01,1.01,1.48,1.25s.91.36,1.33.36c.78,0,1.72-.38,2.81-1.15,1.09-.76,2.24-1.86,3.44-3.27,1.21-1.42,2.36-3.12,3.47-5.11ZM123.05,16.36h-1.64c.36-2.07.79-3.82,1.29-5.25s1.08-2.6,1.75-3.49,1.44-1.54,2.31-1.94c.87-.4,1.84-.6,2.91-.6.57,0,1.07.13,1.48.37.41.25.78.68,1.1,1.31.33.62.64,1.49.95,2.6.31,1.11.63,2.61.96,4.49.33,1.89.71,4.24,1.13,7.08s.88,6.24,1.38,10.22l-4.94,5.77c-.4-2.93-.77-5.51-1.09-7.75-.33-2.24-.63-4.21-.9-5.93-.28-1.71-.53-3.24-.76-4.58-.23-1.34-.46-2.56-.69-3.67-.29-1.47-.52-2.54-.69-3.21-.17-.67-.33-1.1-.46-1.29s-.31-.29-.52-.29c-.42,0-.84.19-1.26.56-.42.37-.83,1.01-1.22,1.91s-.76,2.13-1.1,3.7Z"/>
  <path class="cls-1" d="M4.91,66.97c1.15,0,2.05.34,2.7,1.03.65.69.98,1.53.98,2.53,0,.92-.22,1.75-.65,2.5-.43.75-1.01,1.33-1.75,1.77-.74.43-1.57.65-2.51.65-1.15,0-2.05-.34-2.7-1.02s-.98-1.53-.98-2.54c0-.92.22-1.75.65-2.48s1.02-1.32,1.76-1.77c.75-.44,1.58-.66,2.5-.66Z"/>
  <path class="cls-1" d="M19.52,54.14h-.43c-.71,0-1.37.13-1.98.37-.61.25-1.22.72-1.82,1.42s-1.26,1.73-1.97,3.09l-1.32-.55c.82-2.3,1.74-4.09,2.74-5.38s2.09-2.21,3.27-2.74,2.42-.8,3.72-.8c.54,0,1.03.02,1.49.07s.92.11,1.39.19c.47.08.96.18,1.48.32l-3.53,12-.23-.34c1.36-2.95,2.68-5.32,3.98-7.12,1.29-1.8,2.56-3.1,3.8-3.92,1.24-.81,2.47-1.22,3.67-1.22s2.21.33,2.83.98c.62.65.93,1.49.93,2.53,0,.78-.19,1.48-.57,2.08s-.88,1.08-1.51,1.42c-.62.34-1.31.52-2.05.52-.21,0-.42-.09-.62-.27-.2-.18-.45-.48-.73-.9s-.57-.73-.85-.93c-.28-.2-.59-.3-.93-.3-.48,0-1,.2-1.58.6-.57.4-1.18.99-1.81,1.77-.63.77-1.27,1.73-1.91,2.86s-1.26,2.42-1.87,3.86c-.6,1.45-1.17,3.04-1.71,4.78l-1.92,6.43h-6.26l6.29-20.78Z"/>
  <path class="cls-1" d="M50.43,51.93c-.9,0-1.73.29-2.5.86-.77.57-1.45,1.34-2.07,2.31-.61.97-1.13,2.05-1.56,3.26-.43,1.21-.76,2.45-.99,3.73-.23,1.28-.34,2.53-.34,3.73,0,1.93.4,3.31,1.19,4.12s1.84,1.22,3.14,1.22c.94,0,1.8-.15,2.6-.46.79-.31,1.55-.82,2.27-1.55s1.43-1.74,2.14-3.04h1.75c-1.03,2.47-2.1,4.39-3.19,5.77-1.09,1.38-2.28,2.34-3.56,2.9-1.28.56-2.76.83-4.42.83-1.78,0-3.3-.33-4.56-.99-1.26-.66-2.23-1.62-2.9-2.9-.67-1.27-1-2.81-1-4.61,0-2.01.27-3.9.8-5.68.54-1.78,1.28-3.39,2.24-4.84s2.06-2.7,3.32-3.76c1.25-1.06,2.61-1.88,4.08-2.45s2.97-.86,4.52-.86,2.91.24,3.9.72c1,.48,1.72,1.11,2.17,1.89.45.78.68,1.66.68,2.61,0,.86-.18,1.72-.53,2.57-.35.85-.82,1.55-1.39,2.08-1.09.46-2.23.91-3.42,1.35-1.19.44-2.4.87-3.65,1.28-1.24.41-2.5.8-3.76,1.18-1.26.37-2.52.72-3.76,1.05l.09-2.3c1.78-.55,3.31-1.09,4.58-1.61,1.27-.52,2.32-1.01,3.14-1.49.82-.48,1.46-.96,1.92-1.44.46-.48.78-.97.98-1.48.19-.51.29-1.04.29-1.59,0-.5-.08-.92-.24-1.28-.16-.35-.41-.63-.73-.83-.33-.2-.73-.3-1.2-.3Z"/>
  <path class="cls-1" d="M85.65,54.17c0,1.89-.32,3.84-.96,5.84-.64,2-1.53,3.93-2.66,5.78-1.13,1.86-2.44,3.52-3.92,4.99-1.48,1.47-3.09,2.65-4.81,3.52s-3.49,1.31-5.31,1.31-3.2-.44-4.21-1.33c-1.01-.89-1.51-2.12-1.51-3.69,0-.92.17-1.9.52-2.93l4.48-13.52h-.43c-.71,0-1.35.13-1.94.39-.58.26-1.17.74-1.77,1.44-.59.7-1.24,1.72-1.95,3.06l-1.35-.6c.67-1.68,1.38-3.09,2.12-4.22s1.55-2.03,2.43-2.71c.87-.68,1.8-1.17,2.8-1.46,1-.3,2.07-.44,3.21-.44.61,0,1.18.02,1.71.07.53.05,1.02.11,1.49.19s.9.17,1.31.29l-5.51,16.65c-.15.46-.27.89-.34,1.28s-.11.75-.11,1.08c0,.84.22,1.47.66,1.88.44.41,1.05.62,1.84.62.9,0,1.83-.28,2.78-.83.96-.56,1.87-1.29,2.73-2.21.86-.92,1.63-1.95,2.31-3.09.68-1.14,1.22-2.29,1.62-3.46.4-1.17.6-2.28.6-3.33,0-.75-.16-1.4-.49-1.95-.33-.55-.7-1.04-1.13-1.46s-.81-.8-1.13-1.13c-.33-.33-.49-.66-.49-.99,0-1.11.36-2,1.09-2.66.73-.66,1.58-.99,2.56-.99,1.15,0,2.06.39,2.74,1.18s1.02,1.94,1.02,3.47Z"/>
  <path class="cls-1" d="M88.23,72.97l7.35-20.12,1.29,1.15c-.82-.02-1.66.13-2.5.43-.84.31-1.69.78-2.54,1.42-.85.64-1.73,1.45-2.63,2.43l-1.06-.98c1.36-1.95,2.67-3.49,3.95-4.62,1.27-1.13,2.52-1.94,3.73-2.43s2.4-.73,3.55-.73c1.2,0,2.04.22,2.5.66.46.44.53,1.11.2,2.01l-7.35,20.67-1.09-1.64c.84.04,1.68-.07,2.53-.33.84-.26,1.71-.67,2.6-1.25s1.8-1.3,2.74-2.18l.98,1.06c-1.4,1.72-2.74,3.1-4.02,4.13s-2.52,1.78-3.7,2.25-2.35.7-3.5.7c-1.38,0-2.31-.22-2.78-.66-.48-.44-.56-1.1-.23-1.98ZM98.28,38.33c0-.8.18-1.52.53-2.14.35-.62.84-1.11,1.45-1.46s1.31-.53,2.1-.53c1.19,0,2.17.39,2.94,1.16.77.78,1.16,1.77,1.16,2.97,0,.79-.18,1.48-.53,2.1s-.84,1.1-1.45,1.46c-.61.36-1.32.55-2.12.55-1.17,0-2.14-.39-2.91-1.16s-1.16-1.76-1.16-2.94Z"/>
  <path class="cls-1" d="M119,51.93c-.9,0-1.73.29-2.5.86-.77.57-1.45,1.34-2.07,2.31-.61.97-1.13,2.05-1.56,3.26-.43,1.21-.76,2.45-.99,3.73-.23,1.28-.34,2.53-.34,3.73,0,1.93.4,3.31,1.19,4.12s1.84,1.22,3.14,1.22c.94,0,1.8-.15,2.6-.46.79-.31,1.55-.82,2.27-1.55s1.43-1.74,2.14-3.04h1.75c-1.03,2.47-2.1,4.39-3.19,5.77-1.09,1.38-2.28,2.34-3.56,2.9-1.28.56-2.76.83-4.42.83-1.78,0-3.3-.33-4.56-.99-1.26-.66-2.23-1.62-2.9-2.9-.67-1.27-1-2.81-1-4.61,0-2.01.27-3.9.8-5.68.54-1.78,1.28-3.39,2.24-4.84s2.06-2.7,3.32-3.76c1.25-1.06,2.61-1.88,4.08-2.45s2.97-.86,4.52-.86,2.91.24,3.9.72c1,.48,1.72,1.11,2.17,1.89.45.78.68,1.66.68,2.61,0,.86-.18,1.72-.53,2.57-.35.85-.82,1.55-1.39,2.08-1.09.46-2.23.91-3.42,1.35-1.19.44-2.4.87-3.65,1.28-1.24.41-2.5.8-3.76,1.18-1.26.37-2.52.72-3.76,1.05l.09-2.3c1.78-.55,3.31-1.09,4.58-1.61,1.27-.52,2.32-1.01,3.14-1.49.82-.48,1.46-.96,1.92-1.44.46-.48.78-.97.98-1.48.19-.51.29-1.04.29-1.59,0-.5-.08-.92-.24-1.28-.16-.35-.41-.63-.73-.83-.33-.2-.73-.3-1.2-.3Z"/>
  <path class="cls-1" d="M149.72,50.24h6.14l-4.77,16.71c-.13.5-.24.95-.31,1.36-.08.41-.12.78-.12,1.11,0,.79.19,1.35.56,1.69.37.34.91.52,1.62.52.84,0,1.7-.28,2.57-.83.87-.56,1.71-1.29,2.53-2.21.81-.92,1.54-1.95,2.18-3.09.64-1.14,1.14-2.29,1.51-3.46s.55-2.28.55-3.33c0-.75-.16-1.4-.49-1.95-.33-.55-.7-1.04-1.13-1.46s-.81-.8-1.15-1.13c-.33-.33-.5-.66-.5-.99,0-1.11.38-2,1.13-2.66.76-.66,1.6-.99,2.54-.99.75,0,1.4.18,1.95.53.55.35.98.87,1.29,1.55.31.68.46,1.54.46,2.57,0,1.89-.3,3.84-.9,5.84s-1.45,3.93-2.53,5.78-2.33,3.52-3.75,4.99c-1.42,1.47-2.94,2.65-4.58,3.52s-3.31,1.31-5.01,1.31c-1.53,0-2.71-.3-3.54-.89-.83-.59-1.25-1.63-1.25-3.1,0-.52.05-1.08.16-1.71.11-.62.26-1.32.47-2.08l1.15-3.9.69.14c-.76,2.18-1.61,4.01-2.53,5.5-.92,1.48-1.87,2.67-2.84,3.56-.98.89-1.95,1.53-2.93,1.91-.98.38-1.92.58-2.84.58-1.63,0-2.9-.43-3.8-1.29s-1.36-2.09-1.36-3.67c0-.99.21-2.15.63-3.47l4.31-13.03h-.43c-.69,0-1.33.13-1.92.39-.59.26-1.19.74-1.78,1.44-.59.7-1.24,1.72-1.95,3.06l-1.35-.6c.67-1.68,1.38-3.09,2.12-4.22s1.55-2.03,2.43-2.71c.87-.68,1.8-1.17,2.8-1.46,1-.3,2.08-.44,3.24-.44.65,0,1.24.02,1.78.07.53.05,1.03.12,1.48.2.45.09.86.18,1.22.27l-5.54,16.82c-.19.57-.33,1.08-.42,1.52-.09.44-.13.82-.13,1.15,0,.67.16,1.15.49,1.45.33.3.78.44,1.38.44.84,0,1.7-.41,2.58-1.22.88-.81,1.72-1.96,2.51-3.43.79-1.47,1.47-3.19,2.02-5.14l3.36-11.48Z"/>
  <path class="cls-1" d="M169.92,68.72c.23,0,.48.14.75.43.27.29.72.88,1.35,1.78.63.92,1.24,1.55,1.82,1.91.58.35,1.16.53,1.74.53.69,0,1.3-.12,1.82-.36.53-.24.94-.59,1.25-1.05.31-.46.46-1.02.46-1.69,0-.5-.1-1.01-.29-1.52-.19-.52-.54-1.1-1.03-1.75-.5-.65-1.23-1.43-2.18-2.32-.96-.92-1.72-1.77-2.28-2.55-.56-.78-.97-1.55-1.22-2.31-.25-.76-.37-1.54-.37-2.34,0-1.45.36-2.78,1.09-3.99.73-1.21,1.78-2.17,3.16-2.89,1.38-.72,3.03-1.08,4.97-1.08,1.53,0,2.76.18,3.69.55.93.36,1.61.85,2.05,1.46.44.61.66,1.29.66,2.04,0,.54-.12,1.01-.36,1.42-.24.41-.57.73-1,.95s-.92.33-1.48.33c-.17,0-.4-.12-.68-.37-.28-.25-.68-.76-1.22-1.55-.54-.77-1.1-1.36-1.69-1.79-.59-.43-1.16-.65-1.69-.65-.86,0-1.52.24-1.98.72-.46.48-.69,1.14-.69,1.98,0,.42.11.88.32,1.36.21.49.58,1.07,1.11,1.74.53.67,1.26,1.49,2.19,2.47.96.98,1.71,1.88,2.27,2.71.55.83.95,1.62,1.19,2.37.24.75.36,1.47.36,2.18,0,1.47-.44,2.83-1.31,4.08s-2.06,2.24-3.57,2.98c-1.51.75-3.23,1.12-5.17,1.12-1.63,0-2.95-.19-3.97-.58-1.02-.38-1.78-.88-2.27-1.51-.49-.62-.73-1.3-.73-2.02,0-.54.13-1.01.39-1.44.26-.42.61-.75,1.06-.99.45-.24.95-.36,1.51-.36Z"/>
</svg>